<?xml version="1.0" encoding="utf-8"?>
<!-- Generator: Adobe Illustrator 26.5.0, SVG Export Plug-In . SVG Version: 6.00 Build 0)  -->
<svg version="1.1" id="_x3C_레이어_x3E_" xmlns="http://www.w3.org/2000/svg" xmlns:xlink="http://www.w3.org/1999/xlink"
	 x="0px" y="0px" viewBox="0 0 147.97 167.96" style="enable-background:new 0 0 147.97 167.96;" xml:space="preserve">
<style type="text/css">
	.st0{fill:#FFFFFF;}
</style>
<g>
	<path class="st0" d="M73.99,108.85c-30.01,0-54.42-24.41-54.42-54.42S43.98,0,73.99,0c30.01,0,54.42,24.41,54.42,54.42
		S104,108.85,73.99,108.85z M73.99,17c-20.64,0-37.42,16.79-37.42,37.42c0,20.64,16.79,37.42,37.42,37.42
		c20.64,0,37.42-16.79,37.42-37.42C111.41,33.79,94.62,17,73.99,17z"/>
	<path class="st0" d="M8.5,167.96c-4.69,0-8.5-3.81-8.5-8.5c0-30.41,17.77-58.45,45.27-71.45c4.24-2,9.31-0.19,11.32,4.05
		c2.01,4.24,0.19,9.31-4.05,11.32C30.95,113.58,17,135.59,17,159.46C17,164.15,13.19,167.96,8.5,167.96z"/>
	<path class="st0" d="M139.47,167.96c-4.69,0-8.5-3.81-8.5-8.5c0-23.87-13.95-45.88-35.54-56.08c-4.24-2.01-6.06-7.07-4.05-11.32
		c2-4.24,7.07-6.06,11.32-4.05c27.51,13,45.28,41.04,45.28,71.45C147.97,164.15,144.17,167.96,139.47,167.96z"/>
	<path class="st0" d="M71.48,167.58c-2.52,0-4.91-0.93-6.53-2.87l-13.61-16.23c-3.01-3.61-2.52-8.92,1.09-11.92
		c3.6-3,8.97-2.5,11.97,1.11l6.88,8.26l18.74-23.91c2.9-3.69,8.24-4.34,11.93-1.44c3.69,2.9,4.34,8.24,1.45,11.94l-25.23,32
		c-1.58,2.02-4,3.07-6.56,3.07C71.57,167.58,71.52,167.58,71.48,167.58z"/>
</g>
</svg>
