<?xml version="1.0" encoding="utf-8"?>
<!-- Generator: Adobe Illustrator 26.5.0, SVG Export Plug-In . SVG Version: 6.00 Build 0)  -->
<svg version="1.1" id="Layer_3" xmlns="http://www.w3.org/2000/svg" xmlns:xlink="http://www.w3.org/1999/xlink" x="0px" y="0px"
	 viewBox="0 0 63.95 52.63" style="enable-background:new 0 0 63.95 52.63;" xml:space="preserve">
<style type="text/css">
	.st0{fill:none;stroke:#FFFFFF;stroke-width:1.8;stroke-linecap:round;stroke-linejoin:round;stroke-miterlimit:10;}
	.st1{fill:none;stroke:#FFFFFF;stroke-width:2;stroke-linecap:round;stroke-linejoin:round;stroke-miterlimit:10;}
	.st2{fill:#FFFFFF;stroke:#FFFFFF;stroke-width:2;stroke-linecap:round;stroke-linejoin:round;stroke-miterlimit:10;}
</style>
<g>
	<g>
		<path class="st0" d="M22.2,3.67h2.02c1.01,0,1.83,0.82,1.83,1.83v0c0,1.01-0.82,1.83-1.83,1.83H22.2"/>
		<path class="st0" d="M22.2,7.33h2.02c1.01,0,1.83,0.82,1.83,1.83v0c0,1.01-0.82,1.83-1.83,1.83H22.2"/>
		<path class="st0" d="M31.04,7.15h-2.21v2.01c0,1.11,0.9,2.01,2.01,2.01h0.2c1.11,0,2.01-0.9,2.01-2.01v0
			C33.05,8.05,32.15,7.15,31.04,7.15z"/>
		<path class="st0" d="M32.68,3.67h-2.11c-0.96,0-1.74,0.78-1.74,1.74v1.92"/>
		<path class="st0" d="M37.57,10.99L37.57,10.99c-1.06,0-1.92-0.86-1.92-1.92V5.59c0-1.06,0.86-1.92,1.92-1.92h0
			c1.06,0,1.92,0.86,1.92,1.92v3.47C39.49,10.13,38.63,10.99,37.57,10.99z"/>
		<circle class="st0" cx="42.88" cy="2.29" r="1.39"/>
	</g>
	<path class="st1" d="M62.94,11.36v28.17c0,2.28-1.62,4.41-4.42,6.24c-5.42,3.51-15.28,5.86-26.55,5.86C14.86,51.63,1,46.21,1,39.53
		V11.36c0,3.61,4.07,6.86,10.52,9.08c5.46,1.88,12.61,3.02,20.45,3.02c7.84,0,14.99-1.13,20.45-3.02c2.39-0.82,4.45-1.78,6.1-2.86
		C61.33,15.76,62.94,13.64,62.94,11.36z"/>
	<path class="st1" d="M9.85,2.99v16.73C4.37,17.56,1,14.62,1,11.35C1,8.1,4.37,5.15,9.85,2.99z"/>
	<path class="st1" d="M62.95,11.35c0,3.27-3.38,6.21-8.86,8.36V2.98C59.57,5.14,62.95,8.1,62.95,11.35z"/>
	<polygon class="st2" points="26.54,43.43 26.54,31.49 37.4,37.46 	"/>
</g>
</svg>
