<?xml version="1.0" encoding="utf-8"?>
<!-- Generator: Adobe Illustrator 26.5.0, SVG Export Plug-In . SVG Version: 6.00 Build 0)  -->
<svg version="1.1" id="Layer_1" xmlns="http://www.w3.org/2000/svg" xmlns:xlink="http://www.w3.org/1999/xlink" x="0px" y="0px"
	 viewBox="0 0 46.99 50.23" style="enable-background:new 0 0 46.99 50.23;" xml:space="preserve">
<g>
	<g>
		<g>
			<path d="M36.25,35.77l-2.12-2.12c4.71-4.71,4.71-12.37,0-17.08l2.12-2.12C42.13,20.33,42.13,29.89,36.25,35.77z"/>
		</g>
		<g>
			<path d="M40.79,40.08l-2.12-2.12c3.43-3.43,5.32-8,5.32-12.85c0-4.85-1.89-9.42-5.32-12.85l2.12-2.12c4,4,6.2,9.32,6.2,14.97
				C46.99,30.77,44.79,36.08,40.79,40.08z"/>
		</g>
	</g>
	<g>
		<path d="M15.63,37.69H0V12.54h15.63V37.69z M3,34.69h9.63V15.54H3V34.69z"/>
	</g>
	<g>
		<path d="M30.97,50.23L12.63,36.95V13.27L30.97,0V50.23z M15.63,35.42l12.34,8.93V5.87l-12.34,8.93V35.42z"/>
	</g>
</g>
</svg>
