<?xml version="1.0" encoding="utf-8"?>
<!-- Generator: Adobe Illustrator 26.5.0, SVG Export Plug-In . SVG Version: 6.00 Build 0)  -->
<svg version="1.1" id="Layer_3" xmlns="http://www.w3.org/2000/svg" xmlns:xlink="http://www.w3.org/1999/xlink" x="0px" y="0px"
	 viewBox="0 0 68.51 58.76" style="enable-background:new 0 0 68.51 58.76;" xml:space="preserve">
<style type="text/css">
	.st0{fill:none;stroke:#FFFFFF;stroke-width:2;stroke-linecap:round;stroke-linejoin:round;stroke-miterlimit:10;}
</style>
<path class="st0" d="M7.1,7.67c2.23,6.16,3.55,13.64,3.55,21.71S9.34,44.95,7.1,51.1c6.4-4.86,16.17-7.98,27.12-7.98
	c10.95,0,20.72,3.11,27.12,7.98c-2.23-6.16-3.55-13.64-3.55-21.71c0-8.08,1.31-15.56,3.55-21.71c-6.4,4.86-16.17,7.98-27.12,7.98
	C23.27,15.65,13.5,12.54,7.1,7.67z"/>
<circle class="st0" cx="49.78" cy="22.18" r="2.6"/>
<polyline class="st0" points="29.72,37.05 40.73,23.03 51.73,37.05 "/>
<polyline class="st0" points="16.71,38.69 27.72,24.66 38.72,38.69 "/>
<polyline class="st0" points="30.11,5.29 34.23,1.18 38.34,5.29 "/>
<polyline class="st0" points="30.11,53.48 34.23,57.59 38.34,53.48 "/>
<polyline class="st0" points="5.19,33.5 1.08,29.39 5.19,25.27 "/>
<polyline class="st0" points="63.26,33.5 67.38,29.39 63.26,25.27 "/>
</svg>
