<svg xmlns="http://www.w3.org/2000/svg" xmlns:xlink="http://www.w3.org/1999/xlink" xml:space="preserve" width="373.16425" height="373.18811" viewBox="0 0 373.16424 373.18811"><defs><linearGradient xlink:href="#a" id="e" x1="87.563004" x2="87.543999" y1="-115.842" y2="-131.89301" gradientTransform="translate(0 223.293) scale(1.33333)" gradientUnits="userSpaceOnUse"/><linearGradient id="a"><stop offset="0" stop-color="#fff" stop-opacity="0"/><stop offset="1" stop-color="#fff" stop-opacity=".28"/></linearGradient><clipPath id="b" clipPathUnits="userSpaceOnUse"><path d="M0 3259h3360V0H0Z"/></clipPath><clipPath id="c" clipPathUnits="userSpaceOnUse"><path d="M0 0h3360v3259H0Z"/></clipPath><radialGradient id="d" cx="0" cy="0" r="1" fx="0" fy="0" gradientTransform="translate(139.626 66.136) scale(146.04497)" gradientUnits="userSpaceOnUse"><stop offset="0" stop-color="#b2e6fa"/><stop offset=".2" stop-color="#33bdf2"/><stop offset=".8" stop-color="#1959a6"/><stop offset="1" stop-color="#33bdf2"/></radialGradient></defs><g clip-path="url(#b)" transform="matrix(.13333 0 0 -.13333 -37.644 403.836)"><path d="M314.82 1629.36c0 753.66 613.168 1366.83 1366.74 1366.83 753.75 0 1366.92-613.17 1366.92-1366.83 0-753.751-613.17-1366.919-1366.92-1366.919-753.572 0-1366.74 613.168-1366.74 1366.919m742.68 754.2c-180.809-142.02-319.59-345.78-359.641-622.35-34.738-275.85 48.602-547.38 232.379-760.14 185.672-208.261 448.832-336.238 754.292-339.121 510.57 5.942 912.24 380.431 984.33 839.521 12.6 87.12 12.6 171.54.81 259.2-1.89 15.39-4.32 29.07-6.93 44.01-27.27 144.18-82.62 266.04-157.5 373.68-17.19 25.56-36.36 47.88-55.35 71.01-199.08 228.96-462.24 343.89-765.72 347.4-235.98-1.08-443.52-72.27-626.67-213.21" style="fill:#fff;fill-opacity:1;fill-rule:nonzero;stroke:none"/><path d="M282.328 1629.36c0 771.57 627.66 1399.41 1399.232 1399.41 771.66 0 1399.5-627.84 1399.5-1399.41 0-771.661-627.84-1399.501-1399.5-1399.501-771.572 0-1399.232 627.84-1399.232 1399.501m32.492 0c0-753.751 613.168-1366.919 1366.74-1366.919 753.75 0 1366.92 613.168 1366.92 1366.919 0 753.66-613.17 1366.83-1366.92 1366.83-753.572 0-1366.74-613.17-1366.74-1366.83" style="fill:#145194;fill-opacity:1;fill-rule:nonzero;stroke:none"/></g><g clip-path="url(#c)" transform="matrix(.13333 0 0 -.13333 -37.644 403.836)"><path d="M2870.72 1352.48c0-19.72-15.95-35.67-35.76-35.67-19.75 0-35.78 15.95-35.78 35.67 0 19.78 16.03 35.78 35.78 35.78 19.81 0 35.76-16 35.76-35.78M567.715 1352.48c0-19.72-15.961-35.67-35.723-35.67-19.758 0-35.73 15.95-35.73 35.67 0 19.78 15.972 35.78 35.73 35.78 19.762 0 35.723-16 35.723-35.78M836.527 878.789l-24.609-21.559 61.516-70.421-14.821-12.969-140.308 160.629 14.824 12.972 61.797-70.761 24.609 21.539zm-8.402 118.75L936.02 874.16l-14.872-13.012-44.406 50.84c-3.582-4.976-5.781-11.027-6.387-18.258-.589-7.339-.175-14.941 1.52-22.89 1.559-8.07 4.031-16.16 7.281-24.149 3.231-8.07 6.949-15.281 11.035-21.82l-17.668-6.199c-4.375 6.707-8.128 14.066-11.429 21.91-3.317 8.039-5.934 15.879-7.887 23.789-1.922 7.91-3.094 15.68-3.348 23.008-.343 7.43.43 14.18 2.231 20.18-6.156-1.059-12.832-.989-20.02.191-7.273 1.211-14.785 3.32-22.476 6.379-7.778 3.152-15.535 7.113-23.348 11.953-7.754 4.789-15.262 10.477-22.441 16.977l9.929 18.152c6.481-5.539 13.399-10.68 20.938-15.289 7.594-4.512 15.129-8.152 22.562-10.883 7.418-2.75 14.696-4.277 21.579-4.68 7.031-.418 13.191.95 18.55 3.813l-44.066 50.437zm-36.598-236.48c-4.918-4.27-10.586-6.918-17.035-8.149-6.519-1.129-13.359-.769-20.601 1.07-7.258 1.918-14.766 5.36-22.5 10.418-7.668 4.973-15.168 11.711-22.5 20.024-7.145 8.226-12.719 16.5-16.664 24.769-3.926 8.258-6.383 16.231-7.215 23.68-.895 7.399-.324 14.289 1.722 20.527 2.004 6.313 5.438 11.551 10.344 15.821 4.926 4.269 10.527 6.98 16.977 8.082 6.406 1.129 13.293.781 20.492-1.102 7.312-1.89 14.801-5.398 22.355-10.418 7.676-5.14 15.071-11.769 22.246-19.949 7.29-8.34 12.93-16.691 16.93-24.883 4.043-8.277 6.461-16.187 7.383-23.64.926-7.438.285-14.258-1.645-20.5-2.019-6.219-5.375-11.438-10.289-15.75zm-26.992 71.589c-9.359 10.723-18.64 17.493-27.773 20.352-9.227 2.941-16.629 1.77-22.574-3.41-2.825-2.461-4.848-5.649-5.848-9.41-.985-3.711-1.152-7.879-.414-12.539.726-4.621 2.383-9.52 5.054-14.68 2.567-5.141 6.239-10.461 10.93-15.813 4.703-5.367 9.449-9.668 14.274-13.039 4.777-3.41 9.449-5.769 13.949-7.05 4.492-1.368 8.594-1.778 12.402-1.27 3.883.633 7.153 2.203 10.035 4.68 5.899 5.16 8.02 12.461 6.461 21.832-1.543 9.41-7.054 19.539-16.496 30.347M2308.14 668.738l41.18-60.668 21.75 14.7-41.09 60.468 21.19 14.383 41.04-60.441 64.47 43.679 11.03-16.289-176.46-119.761-11.09 16.261 48.02 32.61-41.23 60.66zm31.37 82.25c-1.52 2.203-2.93 3.41-4.39 3.532-1.35.16-3.17-.469-5.35-2l-96.51-65.438-11.01 16.219 108.82 73.801c5.28 3.687 10.02 4.898 14.13 3.949 4.21-1.25 8-4.301 11.44-9.442l56.27-82.968-21.29-14.45-52.11 76.797M2690.31 821.488l-17.58-18.918-36.95 34.289c-1.95 1.762-3.57 2.782-5.12 2.93-1.36.293-3.08-.769-5.27-3.09l-82.11-88.609-13.87 12.898 22.58 24.422-20.08 18.61-41.11-44.399-14.49 13.43 144.98 156.371 14.47-13.453-41.11-44.297 20.1-18.633 3.82 4.133c5.81 6.25 10.86 9.43 15.34 9.816 4.51.282 9.22-1.758 14.12-6.308zm-236.13 17.992c-5.45 5.102-8.95 11.02-10.47 17.602-1.41 6.66-1.27 13.629.61 21.156 1.85 7.492 4.98 15.082 9.68 22.883 4.52 7.809 10.24 15.289 16.96 22.578 6.79 7.289 13.79 13.512 21.34 18.813 7.47 5.277 14.83 8.968 22.08 11.328 7.22 2.301 14.16 2.969 21.01 2.082 6.64-1.024 12.83-4.012 18.36-9.102 5.41-5.058 8.89-10.98 10.41-17.558 1.31-6.742 1.15-13.711-.55-21.09-1.75-7.402-4.96-15.051-9.65-22.922-4.68-7.84-10.33-15.328-17.12-22.609-6.78-7.289-13.87-13.559-21.27-18.7-7.39-5.23-14.73-8.961-22.02-11.32-7.34-2.43-14.27-3.133-21.09-2.191-6.64.98-12.79 3.949-18.28 9.05zm18.22 19.629c3.34-2.968 6.92-4.621 11-4.777 4-.152 8.26.758 12.6 2.508 4.29 1.922 8.75 4.539 13.2 8.109 4.47 3.473 8.69 7.422 12.64 11.563 4.08 4.398 7.65 8.898 10.68 13.558 3.18 4.668 5.45 9.289 6.99 13.77 1.49 4.422 2.03 8.66 1.58 12.609-.48 4.11-2.28 7.692-5.62 10.692-3.22 3.058-6.97 4.668-11.02 4.871-4.14.187-8.22-.703-12.61-2.59-4.28-1.871-8.71-4.512-13.19-7.961-4.41-3.449-8.57-7.27-12.65-11.672-3.93-4.199-7.46-8.699-10.69-13.418-3.06-4.812-5.43-9.402-6.99-13.891-1.48-4.441-2.09-8.671-1.58-12.66.43-4.039 2.42-7.648 5.66-10.711zm96.98-55.089 28.06 30.32-20.19 18.59-27.99-30.219 20.12-18.691M1022.36 612.18l-110.012 78.699-11.008-15.527 97.715-69.793c2.335-1.809 3.555-3.438 3.585-4.868.05-1.601-.69-3.41-2.13-5.359l-25.826-36.141 21.004-15.121 30.042 42.051c3.44 4.899 5.1 9.598 4.94 13.758-.21 4.383-2.96 8.5-8.31 12.301M914.16 741.969l-10.906-15.309L1076.6 602.82l10.92 15.2-173.36 123.949M990.57 737c-1.886 1.371-3.019 2.699-3.453 4.039-.316 1.34.145 2.902 1.61 5.012l6.839 9.519 97.684-69.789 10.58 14.739-97.67 69.91 9.86 13.711 99.7-71.243 11.16 15.684-125.02 89.387c-2.157-5.84-3.676-13.438-8.446-20.188l-29.094-40.742c-3.972-5.539-5.531-10.551-4.746-15.07.957-4.457 3.489-8.258 7.762-11.321l107.744-77.007 10.95 15.14L990.57 737M1343.53 607.441l-3.41-8-42.2 17.75.75 1.957-23.73 10-4.66-11.128-55.56 23.359 1.37 3.41-23.74 9.992-21.17-50.242c-1.51-3.687-2.37-7.039-2.25-10.027-.12-3.012.41-5.563 1.52-7.793 1.01-2.289 2.44-4.199 4.27-5.739a20.983 20.983 0 0 1 6-3.789l85.29-35.851 8.61 20.449 42.23-17.75-11.65-27.57 23.88-10.11 38.32 91.141zm-93.94-38.371-49.5 20.852c-2.18.949-3.55 1.957-4.07 3.207-.6 1.211-.41 2.871.51 5.031l10.59 25.07 55.45-23.398zm74.6-7.558-42.2 17.789 8.56 20.461 42.26-17.75-8.62-20.5M1165.44 494.891l-7.76-18.461c-2.47-5.801-2.75-10.86-.99-15.129 1.73-4.219 5.4-7.563 10.88-9.832l118.73-50.008 7.66 18.148-106.44 44.832c-2.1.829-3.48 1.797-4.06 3.098-.57 1.051-.45 2.781.49 4.852l5.58 13.379 111.11-46.891 17.72 42.172c1.53 3.578 1.76 6.828 1.09 9.879-.81 3.031-3.38 5.449-7.59 7.281l-123.19 51.859-7.67-18.23 106.27-44.699c3.17-1.371 4.16-3.411 3.04-6.161l-5.88-14.039-111.07 46.758-7.92-18.808" style="fill:#145194;fill-opacity:1;fill-rule:nonzero;stroke:none"/><path d="m1227.69 672.16-28.32 11.891c-.86-6.18-.6-13.942-3.76-21.461l-4.46-10.551L1215.03 642l12.66 30.16M1306.99 638.75l-28.32 11.949c-.77-6.179-.56-13.988-3.73-21.551l-4.45-10.457 23.81-10 12.69 30.059M1375.49 616.691l-28.32 11.989c-.79-6.149-.61-14-3.74-21.551l-4.43-10.418 23.83-10.109 12.66 30.089M1522.09 483.422c-3.76 8.879-6.21 18.258-7.52 28.117-1.25 9.723-1.09 20 .42 30.723l1.81 12.82 46.39-6.582 2.77 19.512-120.63 17.179-2.77-19.57 46.66-6.621-1.95-14.102c-3.01-21.046-10.39-39.148-21.94-54.277-11.55-15.242-28-27.351-49.38-36.562l11.66-20.629c15.24 6.402 28.74 14.39 40.39 24.039 11.82 9.633 21.15 21.32 28.04 35.07 1.19-6 3.34-12.379 6.33-19.008 3.09-6.543 6.81-12.972 10.95-19.281 4.23-6.27 8.8-12.18 13.9-17.59 5.07-5.558 10.15-10.281 15.27-14.32l14.13 14.672c-7.53 6.59-14.39 13.629-20.15 21.359-5.8 7.867-10.59 16.219-14.38 25.051M1611.55 499.242l7.93 55.957-25.49 3.61-27.92-196.457 25.51-3.641 17.14 121.039 36.17-5.121 2.78 19.519-36.12 5.094" style="fill:#145194;fill-opacity:1;fill-rule:nonzero;stroke:none"/><path d="m1623.13 581.27-30.34 4.3c.79-6.148 3.03-13.672 1.93-21.711l-1.65-11.269 25.49-3.61 4.57 32.29M2713.96 1094.01c-6.79-3.51-13.8-6.26-20.95-8.19-7.13-1.8-14.28-2.69-21.56-2.55-7.06.13-13.89 1.58-20.32 4.35l22.42 42.85-17.46 9.12-22.69-43.19-2.38 1.3-12.48-23.75 2.46-1.34-22.21-42.36 17.4-9.17 22.01 41.93c6.82-3.84 12.48-8.62 16.9-14.21 4.47-5.65 8.01-11.81 10.72-18.67 2.58-6.82 4.38-14.22 5.23-22.22.86-7.98.96-16.449.38-25.191l22.53 2.75c.77 6.851 1.08 13.793.69 20.721-.2 6.94-1.11 13.76-2.52 20.34-1.49 6.66-3.46 13.01-6.11 19.01a70.338 70.338 0 0 1-9.97 16.46c5.41-.23 11.22.31 17.06 1.72 5.91 1.49 11.77 3.29 17.53 5.8 5.81 2.52 11.41 5.42 16.84 8.78 5.41 3.41 10.37 6.97 14.79 10.61l-9.69 17.69c-5.51-4.94-11.76-9.18-18.62-12.59M2807.03 1125.52c-6.7-.19-13.36-1.96-19.84-5.32-6.58-3.41-12.87-8.32-19.05-14.78-5.99-6.38-11.44-14.22-16.32-23.52-4.85-9.13-8.19-18.1-9.91-26.72-1.75-8.54-2.22-16.51-1.27-23.79.96-7.29 3.27-13.8 7-19.27 3.63-5.54 8.53-10.04 14.68-13.21 6.27-3.219 12.66-4.738 19.42-4.711 6.74.121 13.42 1.84 20 5.133 6.64 3.378 13.05 8.198 19.1 14.628 6.04 6.34 11.45 14.18 16.27 23.34 4.86 9.3 8.18 18.23 10 26.86 1.82 8.65 2.21 16.65 1.19 24.05-1.07 7.29-3.38 13.83-7.15 19.53-3.73 5.64-8.57 10.11-14.8 13.39-6.12 3.25-12.66 4.66-19.32 4.39zm16.11-35.18c2.09-3.34 3.32-7.27 3.87-11.8.55-4.52.24-9.4-1.01-14.82-1.23-5.45-3.34-11.06-6.47-16.93-3.03-5.92-6.42-10.86-10.17-14.94-3.79-4.18-7.66-7.17-11.66-9.35-3.97-2-7.97-3.25-11.88-3.41-3.98-.16-7.69.7-11.25 2.55-7.46 3.92-11.78 10.43-12.79 19.67-.96 9.16 1.64 19.67 7.87 31.59 6.21 11.86 13.4 20.09 21.46 24.41 8.17 4.46 15.98 4.73 23.46.81 3.57-1.88 6.39-4.46 8.57-7.78" style="fill:#145194;fill-opacity:1;fill-rule:nonzero;stroke:none"/><path d="m2670.76 1172.28 34.2-17.87-21.52-41.12 17.48-9.15 21.5 41.05 44.83-23.39 11.97 22.73-96.45 50.6-12.01-22.85M2612.73 1107.22l-14.82-28.33c6.04-1.3 13.87-1.69 21.13-5.53l5.82-3.01 12.58 23.9-24.71 12.97" style="fill:#145194;fill-opacity:1;fill-rule:nonzero;stroke:none"/><path d="m2660.02 1206.97-14.2-27.2c6.09-1.3 13.93-1.69 21.13-5.49l5.84-3.08 12 22.88-24.77 12.89M2086.04 535.141c-7.58 5.718-14.42 12.57-20.53 20.5-6.1 8.031-11.19 16.961-15.37 27.191l-3.79 9.289-25-10.269 4.28-10.391c7.85-19.289 10.58-38.641 8.08-58.152-2.46-19.411-10.37-38.68-24-57.489l20.84-11.64c9.84 13.129 17.34 27 22.48 41.73 5.04 14.559 7.05 29.828 6.03 45.539 4.1-4.777 9.05-9.398 14.94-13.668 5.82-4.39 12.13-8.351 18.81-11.769 6.68-3.512 13.62-6.461 20.65-8.961 7.13-2.551 13.88-4.199 20.25-4.992l5.22 20.14c-9.83 1.723-19.24 4.531-28.05 8.313-8.93 3.929-17.19 8.777-24.84 14.629M2115.04 639.859l75.72-185.679 23.83 9.718-75.66 185.75-23.89-9.789" style="fill:#145194;fill-opacity:1;fill-rule:nonzero;stroke:none"/><path d="m2037.23 614.461-29.55-12.031c3.78-4.93 9.49-10.282 12.5-17.84l3.41-8.289 25.02 10.168-11.38 27.992M2129.65 672.309l-28.05-11.411c3.63-4.75 8.97-9.918 11.97-17.078l3.23-8 23.79 9.68-10.94 26.809M1824.43 464.762c-5.84 7.91-10.62 16.488-14.37 25.777-3.87 9.199-6.86 25.07-7.99 35.5l50.18 5.641-2.15 19.48-50.3-5.558-.54 5.296-26.86-3.027.49-5.211-47.76-5.371 2.13-19.48 47.64 5.293c2.33-21.551.43-47.332-7.05-65.481-7.44-18.101-20.37-34.199-39.03-48.16 2.98-2.832 5.93-5.672 8.78-8.422 2.95-3.047 5.9-5.769 9.08-8.629 13.14 10.301 24 21.481 32.5 33.621 8.65 11.989 14.77 25.86 18.32 41.508 2.46-5.918 5.9-11.719 10.31-17.277 4.38-5.641 9.2-10.992 14.71-15.91 5.53-5.102 11.27-9.68 17.42-13.954 6.11-4.277 12.21-7.968 18.42-11.156 1.97 3.156 3.85 6.149 5.62 9.078 1.72 2.969 3.64 5.989 5.57 9.02-8.77 4.41-17.01 9.672-24.69 16.07-7.73 6.34-14.49 13.461-20.43 21.352M1878.48 563.27l21.93-198.329 25.72 2.899-21.97 198.262-25.68-2.832" style="fill:#145194;fill-opacity:1;fill-rule:nonzero;stroke:none"/><path d="m1796.78 573.309-31.76-3.579c2.32-5.761 6.29-12.421 7.21-20.558l.66-6.512 26.91 2.942-3.02 27.707M1901.31 591.5l-30.29-3.309c2.2-5.519 6.05-11.953 6.89-19.742l.96-8.59 25.68 2.903-3.24 28.738M636.594 1127.21c11.621 13.94 26.551 25.6 44.832 35.23l3.383 1.78-12.258 23.27-3.672-1.92c-8.922-4.7-17.844-8.5-26.695-11.29-8.914-2.82-17.887-4.46-27.047-4.83-9.231-.45-18.461.32-27.735 2.36-9.328 1.97-18.933 5.48-28.609 10.42l-7.566-21.62c6.007-3.09 12.257-5.93 18.832-8.24a130.029 130.029 0 0 1 19.73-5.27c6.524-1.18 12.863-1.74 19.016-1.91 6.246-.03 11.976.52 17.363 1.66-4.148-3.88-7.953-8.43-11.355-13.53-3.446-5.21-6.329-10.63-8.907-16.17a140.082 140.082 0 0 1-6.457-17.06 112.807 112.807 0 0 1-3.621-15.75l20.086-5.42c2.231 18.34 9.066 34.41 20.68 48.29" style="fill:#145194;fill-opacity:1;fill-rule:nonzero;stroke:none"/><path d="m687.457 1100.6-15.711 29.87-17.445-9.21 15.722-29.84-110.582-58.3 11.793-22.31 167.836 88.42-11.789 22.34-39.824-20.97M749.156 1080.02l-172.125-90.571 11.793-22.328 172.035 90.609-11.703 22.29" style="fill:#145194;fill-opacity:1;fill-rule:nonzero;stroke:none"/><path d="m788.02 1071.91-14.043 26.69c-4.528-4.15-9.344-10.39-16.622-14.23l-10.031-5.28 11.797-22.34 28.899 15.16M762.145 1111.37l-14 26.72c-4.59-4.26-9.274-10.46-16.508-14.28l-10.098-5.26 11.777-22.38 28.829 15.2M710.309 1177.64l-14.512 27.68c-4.746-4.4-9.637-10.82-17.121-14.78l-10.414-5.41 12.187-23.2 29.86 15.71M534.965 1568.53s18.14 17.87 18.176 40.8c.019 12.01-8.274 20.54-18.098 20.56-24.891.02-26.289-61.98-69.082-61.92-23.578.03-42.996 17.09-42.953 44.37.019 18.79 6.152 32.97 10.972 40.61l21.821-5.49s-12.024-14.4-12.051-35.79c-.016-8.09 6.523-17.71 16.566-17.72 25.332-.03 25.204 62.64 69.961 62.58 24.895-.04 44.078-17.75 44.043-45.7-.035-28.38-14.906-44.52-14.906-44.52l-24.449 2.22M451.02 1700.09l-22.684-.76 8.512 83.2 21.504-2.2-5.309-51.91 38.441-3.95 4.692 45.84 20.949-7.63-4.133-40.41 42.137-4.3 5.601 54.73 20.95-7.62-7.93-77.55-122.73 12.56M583.352 1831.86c27.453-5.2 50.339-23.98 44.199-56.38-.77-4.08-2.43-9.32-4.946-15.5l-23.734 6.05s4.313 5.18 5.938 13.76c2.156 11.37-9.797 20.97-26.75 24.18L467.148 1825l-22.668 1.18 5.856 30.89 133.016-25.21M566.367 2012.32c41.848-12.49 64.906-51.27 53.543-89.35-12.242-41.01-50.347-54.94-90.316-43.01-41.633 12.43-64.821 50.8-53.457 88.88 12.871 43.1 48.801 55.85 90.23 43.48zm33.738-81.62c6.633 22.18-11.175 43.45-41.101 52.37-29.918 8.94-56.469.91-63.09-21.28-6.617-22.16 11.129-43.65 41.043-52.57 29.922-8.94 56.535-.71 63.148 21.48M682.063 2136.42l17.687-6.47-7.582-16.46-105.973-32.17-16.058-1.97 70.593-32.56 18.063-5.67-11.523-24.99-112.032 51.65-21.703 6.65 9.141 19.82 106.523 29.76 15.778 1.86-68.414 31.55-21.708 6.64 11.793 25.58 115.415-53.22M680 2305.28c-17.074-3.57-28.367-11.89-35.32-22.74-13.317-20.79-1.821-50.19 22.816-65.97 28.676-18.38 57.172-9.93 69.422 9.19 6.25 9.74 9.746 20.46 9.746 20.46l-25.918 16.61-17.93 6.83 16.965 26.47 54.168-34.45s-5.695-26.69-21.133-50.78c-19.437-30.34-58.757-46.37-99.382-20.34-38.793 24.87-49.11 69.08-27.071 103.45 10.602 16.55 24.211 27.28 42.231 32.33L680 2305.28M823.633 2476.41c-17.438-.48-30.035-6.66-38.805-16.1-16.797-18.08-10.703-49.06 10.735-68.97 24.949-23.19 53.406-19.82 69.457-2.54 10.109 10.86 16.289 27.79 14.984 46.27l20.051-11.46c-.09-18.69-8.903-39.42-21.535-53.02-24.52-26.39-66.071-35.18-101.426-2.34-33.75 31.36-36.043 76.7-8.25 106.62 13.375 14.4 28.676 22.52 47.308 24.29l7.481-22.75M943.031 2462.35l14.282-12.43-23-20.47-82.008 92.17-17.239 14.76 23.485 20.91 84.48-94.94M886.949 2583.05l97.543 72.28 13.129-17.72-37.898-28.08 62.537-84.38 13.1-13.66-24.73-18.33-73.716 99.47-36.84-27.3-13.125 17.72M1128.97 2593.5l11.52-15.02-26.61-15.48-31.74 54.54-61.16 38.68-21.039 9.24 30.019 17.46 47.3-30.07 6.74-5.94-1.83 8.79-2.96 55.88 24.54 14.28 1.83-92.16 23.39-40.2M1341.95 2745.88c14.94-41.04-2.41-82.69-39.76-96.29-40.2-14.66-74.11 7.61-88.39 46.79-14.88 40.83 2.08 82.34 39.42 95.94 42.25 15.4 73.93-5.83 88.73-46.44zm-45.35-75.79c21.73 7.91 28.16 34.9 17.47 64.24-10.69 29.34-32.98 45.84-54.7 37.92-21.76-7.93-28.41-34.98-17.72-64.31 10.7-29.34 33.19-45.78 54.95-37.85M1359.81 2823.98l81.39 19.24 4.96-21.04-50.79-12 8.88-37.61 44.84 10.58-.34-22.28-39.53-9.34 10.39-43.99 6.64-17.73-29.95-7.07-28.35 120.06-8.14 21.18M1479.91 2849.66l82.88 11.23 2.9-21.41-51.72-7.01 5.2-38.29 45.65 6.18-2.51-22.16-40.23-5.45 6.06-44.79 4.9-18.28-30.5-4.14-16.57 122.25-6.06 21.87M1639.9 2738.02l3.38-18.64-30.77-1.6-6.41 123.2-4.24 22.3 31.4 1.64 6.64-126.9M1788.85 2826.15c-11.66 12.95-24.53 18.53-37.4 19.09-24.66 1.06-44.3-23.68-45.57-52.91-1.43-34.03 19.59-53.51 43.14-54.52 14.85-.63 31.72 5.64 44.93 18.61l4.29-22.69c-14.29-12.05-35.78-18.79-54.31-17.99-36.01 1.54-69.65 27.46-67.58 75.67 1.98 46.03 35 77.18 75.8 75.43 19.63-.85 35.76-7.21 49.18-20.25l-12.48-20.44M1843.24 2833.84l.47 22.69 82.62-12.99-3.36-21.34-51.54 8.1-6-38.18 45.51-7.16-8.75-20.51-40.14 6.31-6.58-41.85 54.35-8.54-8.73-20.51-77.01 12.11 19.16 121.87M2133.46 2708.22c-14.14-41.32-53.83-62.82-91.41-49.95-40.51 13.85-52.89 52.49-39.39 91.94 14.08 41.11 53.34 62.75 90.93 49.88 42.56-14.55 53.85-50.97 39.87-91.87zm-82.89-30.49c21.89-7.48 43.82 9.47 53.96 39 10.1 29.56 3.13 56.39-18.77 63.89-21.89 7.5-44.06-9.38-54.16-38.92-10.12-29.54-2.95-56.47 18.97-63.97M2196.46 2757.78l75.42-36.16-9.36-19.49-47.05 22.55-16.72-34.84 41.54-19.92-14.27-17.14-36.61 17.57-19.53-40.76-5.97-17.97-27.74 13.31 53.32 111.25 6.97 21.6M2353.46 2647.34l10.19 20.29 69.03-47.21-12.21-17.85-43.07 29.46-21.83-31.9 38.04-26.01-16.72-14.76-33.51 22.93-23.91-34.96 45.41-31.06-16.72-14.76-64.33 44.01 69.63 101.82M2514.65 2553.31c24.49-21.41 34.14-58.83 1.09-96.64-27.73-31.74-69.45-37.34-101.99-8.9l-37.17 32.47 81.15 92.9 12.52 18.96zm-102.76-75.79 17.76-15.52c16.78-14.65 43.46-8.67 62.69 13.36 19.54 22.36 22.17 49.93 5.41 64.58l-17.75 15.52-68.11-77.94M2642.95 2388.96l14.96 17.06 18.46-21.27-65.92-57.26c-27.7-24.06-62.36-21.78-87.56 7.24-36.68 42.2 1.72 77.27 4.53 79.7l53.22 46.25 14.99 17.05 20.62-23.74-68.91-59.84c-16.48-14.32-18.04-34.17-5.72-48.36 12.44-14.34 34.06-15.24 50.55-.92l50.78 44.09M2733.4 2237.09c3.65 17.06.62 30.76-6.47 41.51-13.57 20.6-45.11 22.02-69.55 5.92-28.43-18.75-31.91-47.21-18.92-66.9 8.18-12.39 23.14-22.39 41.42-25.5l-15.88-16.77c-18.16 4.51-36.21 17.99-46.4 33.49-19.85 30.06-18.56 72.52 21.72 99.09 38.45 25.36 83.08 16.84 105.54-17.25 10.82-16.39 15.1-33.19 12.41-51.71l-23.87-1.88M2805.2 2177.04l12.36-14.57-89.01-94.08-18.78-23.03-14.13 28.35 24.75 26.23-21.52 43.19-36.04-3.55-11.66 23.45zm-83.07-30.14 15.57-31.27 31.21 32.37 6.75 5.55-8.78-1.93-44.75-4.72M2843.71 2102.07l42.15-113.85-20.7-7.66-16.35 44.23-98.5-36.47-16.77-8.78-10.71 28.88 116.12 42.99-15.94 42.99 20.7 7.67M2780.08 1891.18l-17.5-7.24-8.05 29.73 119.08 32.25 20.9 8.82 8.24-30.34-122.67-33.22M2866.56 1732.46c-43.06-7.05-80.78 17.75-87.18 56.96-6.92 42.25 21.26 71.42 62.44 78.15 42.87 7.02 80.5-17.36 86.91-56.58 7.27-44.39-19.47-71.56-62.17-78.53zm-65.99 58.66c3.75-22.84 29.06-34.18 59.84-29.14 30.84 5.04 51.19 23.87 47.46 46.7-3.73 22.84-29.08 34.41-59.9 29.36-30.8-5.04-51.15-24.08-47.4-46.92M2817.15 1570.14l-18.75-1.95-.41 18.12 81.05 75.44 13.54 8.84-77.7-1.77-18.73-2.84-.6 27.51 123.34 2.81 22.38 3.56.53-21.82-82.64-73.52-13.34-8.6 75.31 1.71 22.41 3.57.64-28.17-127.03-2.89" style="fill:#145194;fill-opacity:1;fill-rule:nonzero;stroke:none"/></g><g style="stroke-width:.640381" transform="matrix(1.56158 0 0 1.56156 22.158 8.538)"><path fill="#33bdf2" d="M41.124 167.662c-15.684-18.155-22.8-41.34-19.836-64.895 3.42-23.616 15.264-41.004 30.707-53.136 15.637-12.036 33.36-18.108 53.509-18.204 25.908.3 48.384 10.104 65.376 29.652 1.632 1.98 3.276 3.888 4.728 6.072 6.396 9.192 11.124 19.584 13.452 31.906.228 1.274.432 2.438.588 3.746 1.008 7.5 1.008 14.7-.06 22.14-6.156 39.203-40.452 71.171-84.048 71.687-26.076-.252-48.552-11.184-64.416-28.968m27.444-33.66c-5.448 2.737-9.36 4.825-11.364 7.033-.78 1.08-1.716 3.096-.384 5.616.12.228 11.52 15.671 12.216 15.803 1.404.444 2.472-.504 3.192-2.808 2.136-5.173 6.6-9.107 10.512-13.02 8.16-8.16 14.904-15.803 20.4-24.143 9.253 10.596 26.028 30.024 26.028 30.024 3.912 4.68 7.212 7.666 9.888 8.975 1.248.456 3.456.792 5.496-1.186.192-.182 11.892-15.397 11.82-16.117.036-1.464-1.152-2.232-3.576-2.294-8.53-.53-18.734-8.568-31.858-21.598 15.232-4.476 27.188-15.39 31.946-29.107 7.054-6.597 10.789-12.81 9.872-17.585-.706-3.647-4.038-6.034-9.322-7.19-5.713-19.136-25.31-33.069-48.398-32.734-27.312.372-49.164 20.58-48.828 45.096a40.392 40.392 0 0 0 3.856 16.658c-14.596 9.919-23.347 20.08-22 27.13 1.576 8.113 18.957 9.99 39.265 5.968a54.792 54.792 0 0 1-8.76 5.48m-7.465-14.58c-.75-3.316 1.82-7.774 6.77-12.594 5.087 5.392 11.58 9.67 18.971 12.382a56.354 56.354 0 0 1-4.603 5.065 56.559 56.559 0 0 1-5.352.255c-7.82 0-15.01-1.66-15.786-5.108" style="stroke-width:.853839"/><path fill="url(#d)" d="M41.124 167.662c-15.684-18.155-22.8-41.34-19.836-64.895 3.42-23.616 15.264-41.004 30.707-53.136 15.637-12.036 33.36-18.108 53.509-18.204 25.908.3 48.384 10.104 65.376 29.652 1.632 1.98 3.276 3.888 4.728 6.072 6.396 9.192 11.124 19.584 13.452 31.906.228 1.274.432 2.438.588 3.746 1.008 7.5 1.008 14.7-.06 22.14-6.156 39.203-40.452 71.171-84.048 71.687-26.076-.252-48.552-11.184-64.416-28.968" style="fill:url(#d);stroke-width:.853839"/><path fill="#fff" d="M69.146 162.39c-.162-.07-.826-.764-1.476-1.54-2.009-2.402-10.706-14.069-11.046-14.82-.373-.82-.436-2.557-.124-3.462.747-2.17 2.97-3.779 11-7.952 2.133-1.11 4.693-2.527 5.685-3.148 2.02-1.265 4.179-2.81 4.073-2.916-.038-.039-.938.087-2 .279-6.106 1.1-11.167 1.577-16.785 1.578-4.46 0-6.714-.166-9.668-.72-5.466-1.024-9.241-3.253-10.346-6.112-.552-1.428-.555-3.55-.006-5.344 2.083-6.8 10-14.957 22.694-23.38C70.963 88.34 82.79 82.21 94.676 77.472c1.746-.696 3.246-1.335 3.334-1.42.32-.307-.96-4.973-2.54-9.259-1.678-4.554.923-9.784 5.666-11.392 2.27-.768 5.182-.4 7.254.92 1.203.767 2.671 2.431 3.275 3.715.712 1.508 1.876 5.021 2.619 7.897.336 1.307.641 2.404.678 2.44.036.038 1.8-.37 3.92-.906 15.804-3.99 28.598-4.862 36.41-2.48 10.085 3.076 9.993 11.44-.244 21.924-5.158 5.28-12.522 10.86-21.286 16.122-4.656 2.796-5.102 2.978-5.68 2.304-.906-1.054-.586-1.514 2.423-3.481 4.88-3.19 8.688-6.19 12.061-9.501 3.887-3.818 5.98-6.895 6.658-9.784 1.578-6.747-6.343-9.476-20.579-7.09-2.912.488-8.703 1.838-11.339 2.642l-1.19.364-.001 2.77c-.004 6.078-1.223 13.484-3.198 19.447-.573 1.733-1.84 5.024-2.554 6.63-.102.231 8.008 8.603 12.921 13.34 7.32 7.06 12.32 11.26 17.045 14.325 4.795 3.109 8.12 4.46 12.014 4.88 2.293.249 3.23.58 3.669 1.3.187.305.337.665.339.8 0 .389-1.686 2.82-5.42 7.818-4.028 5.39-5.72 7.585-6.478 8.408-1.341 1.453-3.654 1.928-5.461 1.12-2.34-1.048-5.736-4.202-10.676-9.916a9534.02 9534.02 0 0 0-20.48-23.632l-4.675-5.366-.306.426a1177.77 1177.77 0 0 0-2.155 3.027c-4.71 6.627-9.876 12.503-19.821 22.547-5.643 5.697-7.327 7.884-8.75 11.357-.873 2.13-1.94 3.07-2.983 2.621zm14.178-39.146c2.96-2.908 6.405-7.459 8.798-11.62 3.86-6.71 5.826-12.697 6.611-20.125.275-2.6.34-4.5.155-4.5-.267 0-8.183 3.962-10.743 5.377-13.307 7.359-23.002 15.487-26.11 21.887-2.315 4.769-1.148 7.337 4.08 8.973 3.209 1.007 6.303 1.341 11.765 1.276l4.205-.05z" paint-order="stroke fill markers" style="stroke-width:.853839"/><ellipse cx="106.18374" cy="77.809364" fill="url(#e)" paint-order="stroke fill markers" rx="49.599876" ry="44.159889" style="fill:url(#e);stroke-width:.853839"/></g></svg>