<svg width="131" height="24" viewBox="0 0 131 24" fill="none" xmlns="http://www.w3.org/2000/svg">
<path fill-rule="evenodd" clip-rule="evenodd" d="M9.02542 0L18.0509 8.89211L9.02542 17.7842L9.02543 24L0 15.1079L9.02542 6.21576V0Z" fill="url(#paint0_linear_442_977)"/>
<path d="M35.0479 10.1641H37.5713C37.2393 7.3999 35.1475 5.81445 32.375 5.81445C29.2041 5.81445 26.7803 8.06396 26.7803 11.9902C26.7803 15.8999 29.1626 18.166 32.375 18.166C35.4297 18.166 37.2974 16.1406 37.5713 13.916L35.0479 13.8994C34.8071 15.2026 33.7778 15.9497 32.4082 15.958C30.5737 15.9497 29.3203 14.5801 29.3203 11.9902C29.3203 9.4585 30.5571 8.03076 32.4248 8.02246C33.8276 8.03076 34.8486 8.83594 35.0479 10.1641Z" fill="white"/>
<path d="M43.3154 18.1826C46.0464 18.1743 47.7397 16.3066 47.748 13.5176C47.7397 10.7368 46.0464 8.86914 43.3154 8.86914C40.5928 8.86914 38.8911 10.7368 38.8994 13.5176C38.8911 16.3066 40.5928 18.1743 43.3154 18.1826ZM41.3896 13.5176C41.3896 11.9321 42.0454 10.7451 43.332 10.7451C44.5854 10.7451 45.2495 11.9321 45.2412 13.5176C45.2495 15.0947 44.5854 16.2651 43.332 16.2734C42.0454 16.2651 41.3896 15.0947 41.3896 13.5176Z" fill="white"/>
<path d="M52.6123 18.1494C54.0815 18.1494 54.8286 17.3027 55.1689 16.5557H55.2852V18H57.709V5.98047H55.252V10.4961H55.1689C54.8452 9.76562 54.123 8.86914 52.6123 8.86914C50.6201 8.86914 48.9434 10.4131 48.9434 13.501C48.9434 16.5142 50.5537 18.1494 52.6123 18.1494ZM51.4668 13.4844C51.4585 11.9155 52.1226 10.8281 53.376 10.8281C54.6128 10.8281 55.3018 11.8657 55.3018 13.4844C55.3018 15.1113 54.6045 16.1821 53.376 16.1904C52.1309 16.1821 51.4585 15.0781 51.4668 13.4844Z" fill="white"/>
<path d="M63.7686 18.1826C65.9932 18.1743 67.4873 17.0952 67.8359 15.4268H65.4951C65.2544 15.9663 64.6567 16.3315 63.8184 16.3398C62.5483 16.3315 61.7432 15.4932 61.7432 14.1318H67.9023V13.4346C67.9023 10.3633 66.0347 8.86914 63.6689 8.86914C61.0293 8.86914 59.311 10.7534 59.3193 13.5342C59.311 16.3896 61.0044 18.1743 63.7686 18.1826ZM61.7432 12.5879C61.793 11.5503 62.5898 10.7036 63.7188 10.7119C64.8145 10.7036 65.5698 11.4922 65.5781 12.5879H61.7432Z" fill="white"/>
<path d="M69.4463 18H71.9033V8.98535H69.4463V18ZM69.3301 6.56152C69.3301 7.24219 69.936 7.80664 70.6748 7.80664C71.4053 7.80664 72.0112 7.24219 72.0029 6.56152C72.0112 5.86426 71.4053 5.30811 70.6748 5.2998C69.936 5.30811 69.3301 5.86426 69.3301 6.56152Z" fill="white"/>
<path d="M78.5605 8.98535H76.8672V6.82715H74.4102V8.98535H73.165V10.8281H74.4102V15.5762C74.3936 17.3276 75.6055 18.1245 77.3818 18.1162C77.9878 18.1245 78.4277 18.0747 78.6934 18.0332V16.0908C78.3945 16.1157 77.9629 16.1406 77.7139 16.1406C77.2158 16.124 76.8589 15.9497 76.8672 15.2275V10.8281H78.5605V8.98535Z" fill="white"/>
<path d="M84.0723 5.98047V18H86.4961V10.0977H86.5957L89.7334 17.9502H91.3936L94.5312 10.1309H94.6309V18H97.0547V5.98047H93.9668L90.6299 14.1318H90.4971L87.1602 5.98047H84.0723Z" fill="white"/>
<path d="M104.808 14.165C104.808 15.3936 103.961 16.0327 103.064 16.041C102.102 16.0327 101.487 15.3687 101.487 14.2979V8.98535H99.0303V14.7295C99.0303 16.8379 100.267 18.1162 102.068 18.1162C103.43 18.1162 104.401 17.4189 104.808 16.373H104.907V18H107.265V8.98535H104.808V14.165Z" fill="white"/>
<path d="M114.32 11.6582H116.628C116.495 9.94824 115.084 8.86914 112.81 8.86914C110.485 8.86914 109 9.94824 109.008 11.6748C109 13.0112 109.879 13.8911 111.598 14.2314L113.092 14.5303C113.938 14.7046 114.32 14.9951 114.32 15.46C114.32 16.041 113.723 16.3979 112.826 16.4062C111.921 16.3979 111.349 16.0327 111.232 15.3271H108.759C108.966 17.0869 110.394 18.1743 112.826 18.1826C115.225 18.1743 116.819 16.9873 116.827 15.2109C116.819 13.916 115.972 13.1357 114.221 12.7705L112.61 12.4385C111.755 12.2642 111.44 11.9487 111.448 11.542C111.44 10.9941 112.046 10.6206 112.843 10.6123C113.665 10.6206 114.212 11.0273 114.32 11.6582Z" fill="white"/>
<path d="M118.338 18H120.795V8.98535H118.338V18ZM118.222 6.56152C118.222 7.24219 118.828 7.80664 119.566 7.80664C120.297 7.80664 120.903 7.24219 120.895 6.56152C120.903 5.86426 120.297 5.30811 119.566 5.2998C118.828 5.30811 118.222 5.86426 118.222 6.56152Z" fill="white"/>
<path d="M126.755 18.1826C129.146 18.1743 130.648 16.7715 130.756 14.7295H128.448C128.291 15.6841 127.651 16.2236 126.788 16.2236C125.593 16.2236 124.829 15.2275 124.829 13.4844C124.829 11.7744 125.609 10.7866 126.788 10.7783C127.718 10.7866 128.299 11.4009 128.448 12.2891H130.756C130.656 10.2222 129.079 8.86914 126.755 8.86914C124.024 8.86914 122.331 10.7617 122.339 13.5176C122.331 16.2651 123.991 18.1743 126.755 18.1826Z" fill="white"/>
<defs>
<linearGradient id="paint0_linear_442_977" x1="9.02541" y1="0" x2="9.02541" y2="24" gradientUnits="userSpaceOnUse">
<stop stop-color="#9E00FF"/>
<stop offset="1" stop-color="#7000FF"/>
</linearGradient>
</defs>
</svg>
