<svg width="204" height="73" viewBox="0 0 204 73" fill="none" xmlns="http://www.w3.org/2000/svg">
<path d="M0.0454545 1.45454H12.1818L25 32.7273H25.5455L38.3636 1.45454H50.5V48H40.9545V17.7045H40.5682L28.5227 47.7727H22.0227L9.97727 17.5909H9.59091V48H0.0454545V1.45454ZM101.381 24.7273C101.381 29.803 100.419 34.1212 98.4943 37.6818C96.5852 41.2424 93.9792 43.9621 90.6761 45.8409C87.3883 47.7045 83.6913 48.6364 79.5852 48.6364C75.4489 48.6364 71.7367 47.697 68.4489 45.8182C65.161 43.9394 62.5625 41.2197 60.6534 37.6591C58.7443 34.0985 57.7898 29.7879 57.7898 24.7273C57.7898 19.6515 58.7443 15.3333 60.6534 11.7727C62.5625 8.21212 65.161 5.5 68.4489 3.63636C71.7367 1.75757 75.4489 0.81818 79.5852 0.81818C83.6913 0.81818 87.3883 1.75757 90.6761 3.63636C93.9792 5.5 96.5852 8.21212 98.4943 11.7727C100.419 15.3333 101.381 19.6515 101.381 24.7273ZM91.4034 24.7273C91.4034 21.4394 90.911 18.6667 89.9261 16.4091C88.9564 14.1515 87.5852 12.4394 85.8125 11.2727C84.0398 10.1061 81.964 9.52273 79.5852 9.52273C77.2064 9.52273 75.1307 10.1061 73.358 11.2727C71.5852 12.4394 70.2064 14.1515 69.2216 16.4091C68.2519 18.6667 67.767 21.4394 67.767 24.7273C67.767 28.0152 68.2519 30.7879 69.2216 33.0455C70.2064 35.303 71.5852 37.0152 73.358 38.1818C75.1307 39.3485 77.2064 39.9318 79.5852 39.9318C81.964 39.9318 84.0398 39.3485 85.8125 38.1818C87.5852 37.0152 88.9564 35.303 89.9261 33.0455C90.911 30.7879 91.4034 28.0152 91.4034 24.7273ZM114.455 1.45454L125.705 36.8182H126.136L137.409 1.45454H148.318L132.273 48H119.591L103.523 1.45454H114.455ZM163.761 1.45454V48H153.92V1.45454H163.761ZM171.858 48V1.45454H203.222V9.56818H181.699V20.6591H201.608V28.7727H181.699V39.8864H203.312V48H171.858Z" fill="#9357F5"/>
<path d="M1.89311 57.4545H5.68572L9.69141 67.2273H9.86186L13.8675 57.4545H17.6602V72H14.6772V62.5327H14.5565L10.7923 71.929H8.76101L4.9968 62.4972H4.87607V72H1.89311V57.4545ZM23.2479 72.206C22.5518 72.206 21.9316 72.0852 21.3871 71.8438C20.8426 71.5975 20.4117 71.2353 20.0945 70.7571C19.782 70.2741 19.6257 69.6728 19.6257 68.9531C19.6257 68.3471 19.737 67.8381 19.9595 67.4261C20.1821 67.0142 20.4851 66.6828 20.8686 66.4318C21.2521 66.1809 21.6877 65.9915 22.1754 65.8636C22.6679 65.7358 23.1839 65.6458 23.7237 65.5938C24.3582 65.5275 24.8696 65.4659 25.2578 65.4091C25.6461 65.3475 25.9278 65.2576 26.103 65.1392C26.2782 65.0208 26.3658 64.8456 26.3658 64.6136V64.571C26.3658 64.1212 26.2237 63.7732 25.9396 63.527C25.6603 63.2808 25.2625 63.1577 24.7464 63.1577C24.2019 63.1577 23.7687 63.2784 23.4467 63.5199C23.1248 63.7566 22.9117 64.0549 22.8075 64.4148L20.0092 64.1875C20.1513 63.5246 20.4306 62.9517 20.8473 62.4688C21.264 61.9811 21.8014 61.607 22.4595 61.3466C23.1224 61.0814 23.8894 60.9489 24.7607 60.9489C25.3667 60.9489 25.9467 61.0199 26.5007 61.1619C27.0594 61.304 27.5542 61.5241 27.9851 61.8224C28.4207 62.1207 28.764 62.5043 29.0149 62.973C29.2659 63.437 29.3913 63.9934 29.3913 64.642V72H26.522V70.4872H26.4368C26.2616 70.8281 26.0272 71.1288 25.7337 71.3892C25.4401 71.6449 25.0874 71.8461 24.6754 71.9929C24.2635 72.1349 23.7876 72.206 23.2479 72.206ZM24.1143 70.1179C24.5594 70.1179 24.9524 70.0303 25.2933 69.8551C25.6342 69.6752 25.9018 69.4337 26.0959 69.1307C26.29 68.8277 26.3871 68.4844 26.3871 68.1009V66.9432C26.2924 67.0047 26.1622 67.0616 25.9964 67.1136C25.8355 67.161 25.6532 67.206 25.4496 67.2486C25.246 67.2865 25.0424 67.322 24.8388 67.3551C24.6352 67.3835 24.4505 67.4096 24.2848 67.4332C23.9297 67.4853 23.6196 67.5682 23.3544 67.6818C23.0893 67.7955 22.8833 67.9493 22.7365 68.1435C22.5897 68.3329 22.5163 68.5696 22.5163 68.8537C22.5163 69.2656 22.6655 69.5805 22.9638 69.7983C23.2668 70.0114 23.6503 70.1179 24.1143 70.1179ZM35.7585 72.1776C34.9299 72.1776 34.1795 71.9645 33.5071 71.5384C32.8395 71.1075 32.3092 70.4754 31.9162 69.642C31.5279 68.804 31.3338 67.7765 31.3338 66.5597C31.3338 65.3097 31.535 64.2704 31.9375 63.4418C32.34 62.6084 32.875 61.9858 33.5426 61.5739C34.215 61.1572 34.9512 60.9489 35.7514 60.9489C36.3622 60.9489 36.8712 61.053 37.2784 61.2614C37.6903 61.465 38.0218 61.7206 38.2727 62.0284C38.5284 62.3314 38.7225 62.6297 38.8551 62.9233H38.9474V57.4545H41.9659V72H38.983V70.2528H38.8551C38.7131 70.5559 38.5118 70.8565 38.2514 71.1548C37.9957 71.4484 37.6619 71.6922 37.25 71.8864C36.8428 72.0805 36.3456 72.1776 35.7585 72.1776ZM36.7173 69.7699C37.205 69.7699 37.617 69.6373 37.9531 69.3722C38.294 69.1023 38.5545 68.7259 38.7344 68.2429C38.919 67.7599 39.0114 67.1941 39.0114 66.5455C39.0114 65.8968 38.9214 65.3333 38.7415 64.8551C38.5616 64.3769 38.3011 64.0076 37.9602 63.7472C37.6193 63.4867 37.205 63.3565 36.7173 63.3565C36.2202 63.3565 35.8011 63.4915 35.4602 63.7614C35.1193 64.0312 34.8613 64.4053 34.6861 64.8835C34.5109 65.3617 34.4233 65.9157 34.4233 66.5455C34.4233 67.1799 34.5109 67.741 34.6861 68.2287C34.866 68.7116 35.1241 69.0904 35.4602 69.3651C35.8011 69.6349 36.2202 69.7699 36.7173 69.7699ZM49.4251 72.2131C48.3029 72.2131 47.337 71.9858 46.5273 71.5312C45.7224 71.072 45.1022 70.4233 44.6665 69.5852C44.2309 68.7424 44.0131 67.7457 44.0131 66.5952C44.0131 65.473 44.2309 64.4882 44.6665 63.6406C45.1022 62.7931 45.7153 62.1326 46.506 61.6591C47.3015 61.1856 48.2343 60.9489 49.3043 60.9489C50.024 60.9489 50.694 61.0649 51.3143 61.2969C51.9393 61.5241 52.4838 61.8674 52.9478 62.3267C53.4165 62.786 53.7811 63.3636 54.0415 64.0597C54.302 64.7509 54.4322 65.5606 54.4322 66.4886V67.3196H45.2205V65.4446H51.5842C51.5842 65.009 51.4895 64.6231 51.3001 64.2869C51.1107 63.9508 50.8479 63.688 50.5117 63.4986C50.1803 63.3045 49.7944 63.2074 49.354 63.2074C48.8948 63.2074 48.4876 63.3139 48.1325 63.527C47.7821 63.7353 47.5075 64.017 47.3086 64.3722C47.1097 64.7225 47.0079 65.1132 47.0032 65.544V67.3267C47.0032 67.8665 47.1026 68.3329 47.3015 68.7259C47.5051 69.1188 47.7915 69.4219 48.1609 69.6349C48.5302 69.848 48.9682 69.9545 49.4748 69.9545C49.811 69.9545 50.1187 69.9072 50.3981 69.8125C50.6774 69.7178 50.9165 69.5758 51.1154 69.3864C51.3143 69.197 51.4658 68.965 51.57 68.6903L54.3683 68.875C54.2262 69.5473 53.935 70.1345 53.4947 70.6364C53.0591 71.1335 52.4956 71.5218 51.8043 71.8011C51.1178 72.0758 50.3247 72.2131 49.4251 72.2131ZM61.0355 72V61.0909H64.0611V72H61.0355ZM62.5554 59.6847C62.1056 59.6847 61.7197 59.5355 61.3977 59.2372C61.0805 58.9342 60.9219 58.572 60.9219 58.1506C60.9219 57.7339 61.0805 57.3764 61.3977 57.0781C61.7197 56.7751 62.1056 56.6236 62.5554 56.6236C63.0052 56.6236 63.3887 56.7751 63.706 57.0781C64.0279 57.3764 64.1889 57.7339 64.1889 58.1506C64.1889 58.572 64.0279 58.9342 63.706 59.2372C63.3887 59.5355 63.0052 59.6847 62.5554 59.6847ZM69.5103 65.6932V72H66.4847V61.0909H69.3683V63.0156H69.4961C69.7376 62.3812 70.1424 61.8793 70.7106 61.5099C71.2788 61.1359 71.9677 60.9489 72.7773 60.9489C73.5349 60.9489 74.1954 61.1146 74.7589 61.446C75.3223 61.7775 75.7603 62.2509 76.0728 62.8665C76.3853 63.4773 76.5415 64.2064 76.5415 65.054V72H73.516V65.5938C73.5207 64.9261 73.3503 64.4053 73.0046 64.0312C72.659 63.6525 72.1831 63.4631 71.5771 63.4631C71.1699 63.4631 70.81 63.5507 70.4975 63.7259C70.1897 63.901 69.9483 64.1567 69.7731 64.4929C69.6026 64.8243 69.515 65.2244 69.5103 65.6932ZM90.3519 63.527V65.9276H83.7184V63.527H90.3519ZM97.6158 72V57.4545H100.691V63.8679H100.883L106.117 57.4545H109.803L104.406 63.9673L109.867 72H106.188L102.204 66.0199L100.691 67.8665V72H97.6158ZM115.476 72.2131C114.373 72.2131 113.419 71.9787 112.614 71.5099C111.814 71.0365 111.196 70.3783 110.76 69.5355C110.325 68.688 110.107 67.7055 110.107 66.5881C110.107 65.4612 110.325 64.4763 110.76 63.6335C111.196 62.786 111.814 62.1278 112.614 61.6591C113.419 61.1856 114.373 60.9489 115.476 60.9489C116.579 60.9489 117.531 61.1856 118.331 61.6591C119.136 62.1278 119.757 62.786 120.192 63.6335C120.628 64.4763 120.846 65.4612 120.846 66.5881C120.846 67.7055 120.628 68.688 120.192 69.5355C119.757 70.3783 119.136 71.0365 118.331 71.5099C117.531 71.9787 116.579 72.2131 115.476 72.2131ZM115.49 69.8693C115.992 69.8693 116.411 69.7273 116.748 69.4432C117.084 69.1544 117.337 68.7614 117.507 68.2642C117.683 67.767 117.77 67.2012 117.77 66.5668C117.77 65.9323 117.683 65.3665 117.507 64.8693C117.337 64.3722 117.084 63.9792 116.748 63.6903C116.411 63.4015 115.992 63.2571 115.49 63.2571C114.984 63.2571 114.558 63.4015 114.212 63.6903C113.871 63.9792 113.613 64.3722 113.438 64.8693C113.267 65.3665 113.182 65.9323 113.182 66.5668C113.182 67.2012 113.267 67.767 113.438 68.2642C113.613 68.7614 113.871 69.1544 114.212 69.4432C114.558 69.7273 114.984 69.8693 115.49 69.8693ZM127.742 72.2131C126.639 72.2131 125.685 71.9787 124.88 71.5099C124.079 71.0365 123.462 70.3783 123.026 69.5355C122.59 68.688 122.373 67.7055 122.373 66.5881C122.373 65.4612 122.59 64.4763 123.026 63.6335C123.462 62.786 124.079 62.1278 124.88 61.6591C125.685 61.1856 126.639 60.9489 127.742 60.9489C128.845 60.9489 129.797 61.1856 130.597 61.6591C131.402 62.1278 132.022 62.786 132.458 63.6335C132.893 64.4763 133.111 65.4612 133.111 66.5881C133.111 67.7055 132.893 68.688 132.458 69.5355C132.022 70.3783 131.402 71.0365 130.597 71.5099C129.797 71.9787 128.845 72.2131 127.742 72.2131ZM127.756 69.8693C128.258 69.8693 128.677 69.7273 129.013 69.4432C129.349 69.1544 129.603 68.7614 129.773 68.2642C129.948 67.767 130.036 67.2012 130.036 66.5668C130.036 65.9323 129.948 65.3665 129.773 64.8693C129.603 64.3722 129.349 63.9792 129.013 63.6903C128.677 63.4015 128.258 63.2571 127.756 63.2571C127.249 63.2571 126.823 63.4015 126.478 63.6903C126.137 63.9792 125.879 64.3722 125.703 64.8693C125.533 65.3665 125.448 65.9323 125.448 66.5668C125.448 67.2012 125.533 67.767 125.703 68.2642C125.879 68.7614 126.137 69.1544 126.478 69.4432C126.823 69.7273 127.249 69.8693 127.756 69.8693ZM142.733 65.6932V72H139.707V57.4545H142.648V63.0156H142.776C143.022 62.3717 143.42 61.8674 143.969 61.5028C144.518 61.1335 145.207 60.9489 146.036 60.9489C146.793 60.9489 147.454 61.1146 148.017 61.446C148.585 61.7727 149.026 62.2438 149.338 62.8594C149.655 63.4702 149.812 64.2017 149.807 65.054V72H146.781V65.5938C146.786 64.9214 146.616 64.3982 146.27 64.0241C145.929 63.6501 145.451 63.4631 144.835 63.4631C144.423 63.4631 144.059 63.5507 143.741 63.7259C143.429 63.901 143.183 64.1567 143.003 64.4929C142.828 64.8243 142.738 65.2244 142.733 65.6932ZM155.299 72.206C154.603 72.206 153.982 72.0852 153.438 71.8438C152.893 71.5975 152.462 71.2353 152.145 70.7571C151.833 70.2741 151.676 69.6728 151.676 68.9531C151.676 68.3471 151.788 67.8381 152.01 67.4261C152.233 67.0142 152.536 66.6828 152.919 66.4318C153.303 66.1809 153.739 65.9915 154.226 65.8636C154.719 65.7358 155.235 65.6458 155.775 65.5938C156.409 65.5275 156.92 65.4659 157.309 65.4091C157.697 65.3475 157.979 65.2576 158.154 65.1392C158.329 65.0208 158.417 64.8456 158.417 64.6136V64.571C158.417 64.1212 158.275 63.7732 157.99 63.527C157.711 63.2808 157.313 63.1577 156.797 63.1577C156.253 63.1577 155.819 63.2784 155.498 63.5199C155.176 63.7566 154.962 64.0549 154.858 64.4148L152.06 64.1875C152.202 63.5246 152.481 62.9517 152.898 62.4688C153.315 61.9811 153.852 61.607 154.51 61.3466C155.173 61.0814 155.94 60.9489 156.811 60.9489C157.417 60.9489 157.998 61.0199 158.551 61.1619C159.11 61.304 159.605 61.5241 160.036 61.8224C160.471 62.1207 160.815 62.5043 161.066 62.973C161.317 63.437 161.442 63.9934 161.442 64.642V72H158.573V70.4872H158.488C158.312 70.8281 158.078 71.1288 157.784 71.3892C157.491 71.6449 157.138 71.8461 156.726 71.9929C156.314 72.1349 155.838 72.206 155.299 72.206ZM156.165 70.1179C156.61 70.1179 157.003 70.0303 157.344 69.8551C157.685 69.6752 157.953 69.4337 158.147 69.1307C158.341 68.8277 158.438 68.4844 158.438 68.1009V66.9432C158.343 67.0047 158.213 67.0616 158.047 67.1136C157.886 67.161 157.704 67.206 157.5 67.2486C157.297 67.2865 157.093 67.322 156.89 67.3551C156.686 67.3835 156.501 67.4096 156.336 67.4332C155.98 67.4853 155.67 67.5682 155.405 67.6818C155.14 67.7955 154.934 67.9493 154.787 68.1435C154.641 68.3329 154.567 68.5696 154.567 68.8537C154.567 69.2656 154.716 69.5805 155.015 69.7983C155.318 70.0114 155.701 70.1179 156.165 70.1179ZM173.047 72V61.0909H175.98V62.9943H176.094C176.293 62.3172 176.627 61.8059 177.096 61.4602C177.564 61.1098 178.104 60.9347 178.715 60.9347C178.866 60.9347 179.03 60.9441 179.205 60.9631C179.38 60.982 179.534 61.008 179.667 61.0412V63.7259C179.525 63.6832 179.328 63.6454 179.077 63.6122C178.826 63.5791 178.596 63.5625 178.388 63.5625C177.943 63.5625 177.545 63.6596 177.195 63.8537C176.849 64.0431 176.575 64.3082 176.371 64.6491C176.172 64.9901 176.073 65.383 176.073 65.8281V72H173.047ZM181.231 72V61.0909H184.256V72H181.231ZM182.751 59.6847C182.301 59.6847 181.915 59.5355 181.593 59.2372C181.276 58.9342 181.117 58.572 181.117 58.1506C181.117 57.7339 181.276 57.3764 181.593 57.0781C181.915 56.7751 182.301 56.6236 182.751 56.6236C183.201 56.6236 183.584 56.7751 183.901 57.0781C184.223 57.3764 184.384 57.7339 184.384 58.1506C184.384 58.572 184.223 58.9342 183.901 59.2372C183.584 59.5355 183.201 59.6847 182.751 59.6847ZM186.68 72V61.0909H189.564V63.0156H189.691C189.919 62.3764 190.297 61.8722 190.828 61.5028C191.358 61.1335 191.993 60.9489 192.731 60.9489C193.479 60.9489 194.116 61.1359 194.642 61.5099C195.167 61.8793 195.518 62.3812 195.693 63.0156H195.806C196.029 62.3906 196.431 61.8911 197.014 61.517C197.601 61.1383 198.295 60.9489 199.095 60.9489C200.113 60.9489 200.939 61.2732 201.574 61.9219C202.213 62.5658 202.532 63.4796 202.532 64.6634V72H199.514V65.2599C199.514 64.6539 199.353 64.1993 199.031 63.8963C198.709 63.5933 198.306 63.4418 197.824 63.4418C197.274 63.4418 196.846 63.617 196.538 63.9673C196.23 64.313 196.076 64.7699 196.076 65.3381V72H193.143V65.196C193.143 64.661 192.989 64.2348 192.681 63.9176C192.378 63.6004 191.978 63.4418 191.481 63.4418C191.145 63.4418 190.842 63.527 190.572 63.6974C190.307 63.8632 190.096 64.0975 189.94 64.4006C189.784 64.6989 189.706 65.0492 189.706 65.4517V72H186.68Z" fill="#FAAFD7"/>
</svg>
