<svg width="204" height="49" viewBox="0 0 204 49" fill="none" xmlns="http://www.w3.org/2000/svg">
<path d="M0.0454545 1.45454H12.1818L25 32.7273H25.5455L38.3636 1.45454H50.5V48H40.9545V17.7045H40.5682L28.5227 47.7727H22.0227L9.97727 17.5909H9.59091V48H0.0454545V1.45454ZM101.381 24.7273C101.381 29.803 100.419 34.1212 98.4943 37.6818C96.5852 41.2424 93.9792 43.9621 90.6761 45.8409C87.3883 47.7045 83.6913 48.6364 79.5852 48.6364C75.4489 48.6364 71.7367 47.697 68.4489 45.8182C65.161 43.9394 62.5625 41.2197 60.6534 37.6591C58.7443 34.0985 57.7898 29.7879 57.7898 24.7273C57.7898 19.6515 58.7443 15.3333 60.6534 11.7727C62.5625 8.21212 65.161 5.5 68.4489 3.63636C71.7367 1.75757 75.4489 0.81818 79.5852 0.81818C83.6913 0.81818 87.3883 1.75757 90.6761 3.63636C93.9792 5.5 96.5852 8.21212 98.4943 11.7727C100.419 15.3333 101.381 19.6515 101.381 24.7273ZM91.4034 24.7273C91.4034 21.4394 90.911 18.6667 89.9261 16.4091C88.9564 14.1515 87.5852 12.4394 85.8125 11.2727C84.0398 10.1061 81.964 9.52273 79.5852 9.52273C77.2064 9.52273 75.1307 10.1061 73.358 11.2727C71.5852 12.4394 70.2064 14.1515 69.2216 16.4091C68.2519 18.6667 67.767 21.4394 67.767 24.7273C67.767 28.0152 68.2519 30.7879 69.2216 33.0455C70.2064 35.303 71.5852 37.0152 73.358 38.1818C75.1307 39.3485 77.2064 39.9318 79.5852 39.9318C81.964 39.9318 84.0398 39.3485 85.8125 38.1818C87.5852 37.0152 88.9564 35.303 89.9261 33.0455C90.911 30.7879 91.4034 28.0152 91.4034 24.7273ZM114.455 1.45454L125.705 36.8182H126.136L137.409 1.45454H148.318L132.273 48H119.591L103.523 1.45454H114.455ZM163.761 1.45454V48H153.92V1.45454H163.761ZM171.858 48V1.45454H203.222V9.56818H181.699V20.6591H201.608V28.7727H181.699V39.8864H203.312V48H171.858Z" fill="#9357F5"/>
</svg>
